<?xml version="1.0" encoding="UTF-8"?>
<svg xmlns="http://www.w3.org/2000/svg" viewBox="0 0 410 408" width="410" height="408">
  <!-- Change fill color below to recolor the logo -->
  <g fill="currentColor" transform="translate(0,408) scale(0.1,-0.1)">
    <path d="M1825 3474 c-151 -23 -271 -63 -439 -146 -250 -125 -489 -314 -625
-495 -183 -245 -291 -580 -291 -903 1 -550 256 -1035 698 -1327 249 -165 490
-236 797 -236 276 -1 474 57 783 229 213 118 317 191 424 297 191 190 305 385
369 632 20 78 23 114 24 275 0 196 -8 255 -60 436 -62 213 -206 527 -303 664
-305 425 -856 655 -1377 574z m400 -570 c153 -41 297 -128 438 -263 151 -145
236 -283 289 -466 29 -102 31 -308 5 -423 -86 -374 -396 -682 -772 -769 -120
-27 -300 -23 -428 10 -331 87 -588 343 -689 685 -20 67 -23 99 -22 247 0 157
2 177 27 259 37 120 68 185 134 283 154 230 406 396 682 448 92 18 250 13 336
-11z"/>
  </g>
</svg>
